<svg width="65" height="64" viewBox="0 0 65 64" fill="none" xmlns="http://www.w3.org/2000/svg">
    <path fill-rule="evenodd" clip-rule="evenodd" d="M10.3242 11.2561l6.42-4.89001 1.21-.37h28.95L48.0942 6.38609l6.61 4.89001.82 1.61v38L54.9742 52.2661 50.1442 57.3761 48.6842 58.0061h-31.66L15.6542 57.4661l-5.48-5.11L9.53418 50.8861v-38l.79002-1.63zm3.21 25.41 4.47 4.94H18.0603v4H16.2342l-2.7-3v7.39l4.26 4h30l3.7-3.91v-7.72l-3.67 3.24H29.1795v-4H46.3342l5.19-4.61v-7.44l-3.67 3.25H29.1795v-4H46.3342l5.19-4.6v-6.92l-3.67 3.26h-31.58l-2.74-2.8v6.12l4.47 4.94H18.0603v4H16.2342l-2.7-3v6.86zm32.71-26.67001h-27.62l-4.07 3.11001 3.4 3.48h28.38l4-3.56-4.09-3.03001z" fill="#ffffff"></path>
    <path d="M23.6199 34.3711C24.2132 34.3711 24.7932 34.547 25.2866 34.8767 25.7799 35.2063 26.1645 35.6749 26.3915 36.223c.2271.548200000000001.2865 1.1514.1707 1.7334C26.4465 38.5383 26.1608 39.0729 25.7412 39.4924 25.3216 39.912 24.7871 40.1977 24.2051 40.3135 23.6232 40.4292 23.02 40.3698 22.4718 40.1427 21.9237 39.9157 21.4551 39.5312 21.1255 39.0378 20.7958 38.5445 20.6199 37.9644 20.6199 37.3711 20.6199 36.5754 20.9359 35.8124 21.4986 35.2498 22.0612 34.6872 22.8242 34.3711 23.6199 34.3711z" fill="#ffffff"></path>
    <path d="M20.0839 49.0582l3.5355-3.5355 3.5355 3.5355-3.5355 3.5356-3.5355-3.5356z" fill="#ffffff"></path>
    <path d="M23.6199 22.2188l3.0311 1.75v3.5l-3.0311 1.75-3.0311-1.75v-3.5l3.0311-1.75z" fill="#ffffff"></path>
</svg>
