<svg xmlns="http://www.w3.org/2000/svg" viewBox="0 0 256 224" fill="none" role="img" aria-labelledby="title">
  <title id="title">Logo</title>
  <path fill="#ffffff" d="M129.8 218.4c-48.8-.3-91.7-31.9-105.1-77.2C8.3 85.3 40.6 28.8 97.5 14.9c42.9-10.5 79.9 1.3 109.1 33.8 33.8 37.7 35.4 90.5 6.6 128.6-17.5 23.1-40.9 36.4-69.6 40.1-3.5.5-7.1.7-10.6 1-1.1.1-2.1 0-3.2 0zm-7.8-202c-2.9 0-5.9-.1-8.8 0-1 0-2.8.3-2.1 1.8 1.3 2.5 2.7 5.1 4.8 6.9 1.6 1.3 4.1 0 6.1-.6l14.4-1.6h20.4c-6.7-3.5-13.9-4.7-21.1-5.2-4.6.3-9-2-13.7-1.3zM73.7 29.9c-11.6 5.9-20.8 14.8-28.5 25C32.2 72.1 26 92 26.4 113.6c.4 20.9 6.8 39.9 19.5 56.7 3.4 4.5 6.9 9 11.5 12.6.8-1.2.5-2.3.5-3.2-.5-5.8 1.5-10.8 4.9-15.3 1.3-1.6 2.5-3.2 3.9-4.8 1.6-1.9 1.8-2.8-1.1-3.7-11.6-3.7-20.9-10.6-26.8-21.6-.2-.5-.6-.9-1.1-1.1-5.3-2.3-6.6-6.7-6.1-12 1-10.3 4.1-20 6.8-29.9.6-2 1.8-3.8 3.5-5 2.9-2.1 4.6-4.9 5.8-8.3 1.6-4.6 4.8-6.7 9.7-6.7 2.4 0 4.8-.1 7.2 0 3.8.1 7.2-.6 9.9-3.6 2.4-.3 3.4-2.5 5.2-3.6 5.1-2.9 7.2-7.3 7.3-13.2.1-5.5 2.3-10.1 7.8-12.7 3-1.5 5.7-3.4 8.2-5.6 1.8-1.6 2.9-3.4 2.6-6-.5-3 .1-6.1 1.7-8.6-12.6 1.8-23.6 5.5-33.6 11.9zm44 63.9c5.7.1 9.9 2.6 13.7 5.9 7 6 8.8 22.6-1.5 28.2-9.2 5-18.7 8.1-29.3 7.2-4.9-.4-9.8-.9-14.7-1.4-12.1-1.2-24.1-3.4-36.3-1.6-2.8.4-3.6 1.1-1.7 3.4 7.5 9.3 17.1 14.5 29.3 13.8 12-.6 24-2.4 36-.2 13.6 2.5 24.1-1.7 31.5-13.5.9-1.5 2.1-3 4.1-1.8 2 1.2 1.3 2.8.2 4.4-6.3 9.9-14 17.6-26.9 17.3-2 0-4.1.4-6.2.6-1.9.2-3.6.8-4.7 2.5-2.4 3.6-5.1 7.1-6.7 11.2l-12.6 32.4c-.9 2.3-.5 3.7 2.1 4.6 11.2 3.9 22.9 6 34.8 6.1 22.6.1 42.9-6.6 61-20.1 1.1-.8 1.7-1.6 1.2-2.8-3-7.8-.9-15.3 1.2-22.9 1.7-6.2 2.9-12.5 1.8-19-1.1-6.5-1-6.5-6.3-3.1-4.5 3-9.6 4.8-14.6 6.7-1.9.7-4.6 1-5.3-.7-1-2.4 2.1-2.4 3.5-3.1 4.1-2 8.8-3 12.4-5.9 9.4-7.6 13.9-18 15.5-29.7.8-5.3 1-10.7 1.5-16.1.1-1 .2-2.1 1.7-2.1s1.4 1.2 1.5 2.2c.1.8-.1 1.6 0 2.4.4 12.6-2.3 24.9-4.3 37.2-2 12.9-.6 25.6 2.2 38.2.4 1.6 1 3.5 2.3 3.9 1.8.6 2.5-1.6 3.4-2.8 9-11.6 14.7-24.7 17.7-39.1 2.3-11.1 2-21.7-3.8-32-4.1-7.3-7.7-14.8-11.7-22.2-8.2-15.3-19.9-28-30.8-41.2-3.3-4-7-7.9-11.8-10.4-.7-.3-1.4-1.1-2.2-.7-1.1.6-.4 1.7-.3 2.5 1.5 6-3.9 12.8-9.7 14.9-1.3.5-2.9 1.1-3.7-.4-.8-1.5 1-2 1.9-2.8 3.9-3.4 6.1-9 5.1-13.3-2.9 1.4-5.3 3.1-6.7 6-.6 1.3-1.5 3.7-3.1 2.8-1.9-1.1-.9-3.3.2-4.9.9-1.5 2.1-2.7 3.6-3.7s3.4-1.1 4.9-2.7c-1.6-.9-3.5-1.3-5.4-1.2-10.8.1-21.6-.1-32.3 2.1-3.4.6-6.8 1.4-9.5 3.8-3.8 3.5-8.1 6.5-12.6 8.8-1.9 1-3.8 2.1-3.1 4.7.6 2.4 2.6 3.6 5 3.9 1 .1 2.3-.2 2.6 1.2.3 1.2-1 1.7-1.7 2.3C93 58.8 86.3 64.3 79.6 70c-4.3 3.7-9.9 5.7-15.5 5.5-2.3-.1-4.6 0-6.9 0-5.4 0-6.6 1.6-5.1 6.8.5 1.9.7 3.9-1 5.4s-3.5 1.4-5.3-.1c-.9-.7-1.6-.4-2.3.5-1.6 1.9-1.3 3.4 1.2 4 4.4 1.2 7.7-1.1 10.8-3.9.6-.6 1.4-1.6 2.3-.9 1 .7.4 1.7-.1 2.5-1.9 3.7-9.4 7.7-13.6 7.2-1.1-.1-1.7 0-2 1.2-1.8 7.2-4.1 14.3-4.7 21.8-.6 7.6 1.2 9.1 8.7 7.4 12.4-2.9 24.6-3.7 37 .2 6.7 2.1 13.8 2.3 20.9 1.5 8.2-.9 16.4-2.3 23.2-7.5 2.7-1.9 4.3-4.8 4.6-8.1.5-4.9-1.8-8.4-5.1-11.5-2.8-2.8-5.7-5.3-9-8.2zm-25.1 59.4v.1c-1.1-.1-2.3-.2-3.4-.2-5.3-.1-10.7-.5-14.8 3.9-5 5.4-8.9 11.4-10.2 18.7-2.2 11.5-.6 14.7 9.5 20.6l3.2 1.9c8.2 4.7 8.2 4.7 11.1-4.1 1.4-4.1.4-7-3.3-9.4-.9-.6-1.8-.9-2.7-1.4-.9-.5-1.6-1.1-1.5-2.1.1-.9.9-1.7 1.8-1.9 3.2-.4 6.4-1.5 9.5-.3 1.6.6 2.3.1 2.9-1.2 3.3-7.3 6.7-14.5 10.1-21.8.7-1.5.3-2-1.3-2.1-3.6-.2-7.2-.5-10.9-.7zm86.6-119.1c17.3 17.7 31.8 37.8 43.2 59.8 1.1-16-27.4-55.5-43.2-59.8z"/>
</svg>
