<svg version="1.1" id="Brandmark" xmlns:x="ns_extend;" xmlns:i="ns_ai;" xmlns:graph="ns_graphs;" xmlns="http://www.w3.org/2000/svg" xmlns:xlink="http://www.w3.org/1999/xlink" x="0px" y="0px" viewBox="0 0 78 78" style="enable-background:new 0 0 78 78;" xml:space="preserve">
 <style type="text/css">
  .st0{fill:#FFFFFF;}
 </style>
 <metadata>
  <sfw xmlns="ns_sfw;">
   <slices>
   </slices>
   <sliceSourceBounds bottomLeftOrigin="true" height="78" width="78" x="1317.3" y="-127">
   </sliceSourceBounds>
  </sfw>
 </metadata>
 <path class="st0" d="M78,39c0,15.9-9.5,29.6-23.2,35.7l-13-13.1c-0.5-0.5-0.8-1.3-0.8-2V54c0-0.8,0.7-1.5,1.5-1.5H55l3.4,1.5
	c0.6,0.3,1.3,0,1.7-0.6l7.4-13.5c0.2-0.4,0.4-0.9,0.4-1.4v-3.2c0-0.4-0.1-0.7-0.4-1l-15-15c-0.1-0.1-0.3-0.2-0.5-0.2l-14.6-3.5
	c-0.5-0.1-0.9-0.3-1.2-0.6l-0.9-0.8l-4.7-4.1c-0.2-0.1-0.4-0.1-0.6,0c-1.8,1.6-2.8,3-3.3,4.8c-0.8,2.8-0.1,5.3,1,6.8
	c0.1,0.1,0.1,0.2,0.2,0.3l5.6,5.6c0.3,0.3,0.4,0.6,0.4,1l0,6.5c0,0.4-0.5,0.6-0.8,0.3L24,26.3c-0.2-0.2-0.6-0.2-0.9,0l-3.7,3.7
	c-0.2,0.2-0.2,0.6,0,0.9l12.9,12.9c1.5,1.5,2.3,3.5,2.3,5.6v12.9c0,0.9,0.3,1.7,1,2.3L47.9,77c-2.3,0.5-4.7,0.9-7.2,1L31,68.3
	c-1.4-1.4-2.1-3.2-2.1-5.1V49.9c0-0.8-0.3-1.5-0.8-2L15.3,35.1c-0.2-0.2-0.6-0.2-0.9,0l-3.8,3.8c-0.2,0.2-0.2,0.6,0,0.9l11,11
	c0.3,0.3,0.4,0.6,0.4,1v6.4c0,0.4-0.5,0.6-0.8,0.3L6.7,44c-0.2-0.2-0.6-0.1-0.6,0.3l0,7.7c0,0.5,0.2,0.9,0.5,1.3l23.9,23.9
	C12.6,73.1-0.7,56.8,0,37.5C0.8,17.8,16.5,1.5,36.2,0.1C59-1.5,78,16.6,78,39">
 </path>
</svg>